<svg width="16" height="16" viewBox="0 0 16 16" fill="none" xmlns="http://www.w3.org/2000/svg">
<g clip-path="url(#clip0_1124_14)">
<rect width="16" height="16" rx="8" fill="white"/>
<g filter="url(#filter0_d_1124_14)">
<circle cx="8" cy="8" r="8" fill="white"/>
<circle cx="8" cy="8" r="7.85" stroke="#D2D2D7" stroke-width="0.3"/>
</g>
<path d="M10.5206 7.756C10.5166 7.01859 10.8474 6.46201 11.5169 6.05212C11.1423 5.51162 10.5764 5.21424 9.82917 5.15597C9.12181 5.09971 8.3487 5.5719 8.06575 5.5719C7.76687 5.5719 7.08143 5.17607 6.54344 5.17607C5.43159 5.19415 4.25 6.0702 4.25 7.85244C4.25 8.37888 4.34564 8.92273 4.53693 9.48399C4.79198 10.2214 5.71254 12.0298 6.67295 11.9996C7.17508 11.9876 7.52976 11.64 8.18332 11.64C8.81695 11.64 9.14572 11.9996 9.70563 11.9996C10.674 11.9856 11.5069 10.342 11.75 9.60254C10.4509 8.98569 10.5206 7.79418 10.5206 7.756ZM9.3928 4.45674C9.93677 3.80573 9.88696 3.21299 9.87102 3C9.39081 3.02813 8.83488 3.32952 8.51807 3.70124C8.16937 4.09908 7.96413 4.59136 8.00797 5.14593C8.52803 5.18611 9.00226 4.91687 9.3928 4.45674Z" fill="black"/>
</g>
<defs>
<filter id="filter0_d_1124_14" x="-14" y="-12" width="42" height="42" filterUnits="userSpaceOnUse" color-interpolation-filters="sRGB">
<feFlood flood-opacity="0" result="BackgroundImageFix"/>
<feColorMatrix in="SourceAlpha" type="matrix" values="0 0 0 0 0 0 0 0 0 0 0 0 0 0 0 0 0 0 127 0" result="hardAlpha"/>
<feMorphology radius="12" operator="dilate" in="SourceAlpha" result="effect1_dropShadow_1124_14"/>
<feOffset dx="-1" dy="1"/>
<feGaussianBlur stdDeviation="0.5"/>
<feComposite in2="hardAlpha" operator="out"/>
<feColorMatrix type="matrix" values="0 0 0 0 0 0 0 0 0 0 0 0 0 0 0 0 0 0 1 0"/>
<feBlend mode="normal" in2="BackgroundImageFix" result="effect1_dropShadow_1124_14"/>
<feBlend mode="normal" in="SourceGraphic" in2="effect1_dropShadow_1124_14" result="shape"/>
</filter>
<clipPath id="clip0_1124_14">
<rect width="16" height="16" rx="8" fill="white"/>
</clipPath>
</defs>
</svg>
