<svg width="98" height="98" viewBox="0 0 98 98" fill="none" xmlns="http://www.w3.org/2000/svg">
<path fill-rule="evenodd" clip-rule="evenodd" d="M85.2195 13.295C85.8211 14.4691 85.3648 15.9126 84.2004 16.5191C80.9181 18.2288 78.0621 21.2759 75.4015 25.3807C78.1933 26.1281 80.733 27.1235 82.9077 28.3681C87.129 30.7842 90.2659 34.3355 90.6771 39.0362C91.1244 44.1527 87.7216 48.5947 83.52 51.953C82.5361 52.7394 81.4768 53.493 80.3603 54.2099C82.4569 55.4357 84.4064 56.78 86.1127 58.2182C90.2673 61.72 93.5435 66.2808 92.9247 71.4006C92.3956 75.7783 89.8984 78.9967 86.533 81.1871C83.223 83.3414 79.016 84.5552 74.712 85.0935C66.1749 86.1611 56.3519 84.6683 50.5989 81.3876C49.4581 80.737 49.0563 79.277 49.7016 78.1268C50.3469 76.9766 51.7949 76.5715 52.9358 77.2221C57.5601 79.8592 66.2849 81.3252 74.1277 80.3442C78.0137 79.8583 81.4549 78.7961 83.9587 77.1665C86.4069 75.573 87.8893 73.4996 88.213 70.8216C88.5295 68.2027 86.8782 65.1009 83.0682 61.8897C80.9426 60.0981 78.3161 58.4263 75.44 56.9671C72.9656 58.1794 70.3645 59.2231 67.7822 60.0666C64.4006 61.171 60.9488 61.9652 57.7624 62.3217C54.8983 67.5484 51.5861 72.3799 47.4847 76.0805C39.6511 83.1487 30.1418 86.3623 22.016 85.9677C13.9157 85.5742 6.70329 81.4766 4.79341 73.4929C2.64348 64.5058 5.07101 56.1214 9.56875 49.1307C14.0497 42.1661 20.651 36.462 27.1819 32.6266C39.4795 25.4047 54.6478 22.8343 66.9421 23.9282C68.1295 24.0338 69.2964 24.1742 70.4368 24.3493C70.5028 24.24 70.5689 24.1311 70.6352 24.0227C73.6953 19.0183 77.3287 14.7119 82.0216 12.2674C83.1862 11.6609 84.6178 12.1209 85.2195 13.295ZM67.944 28.8408C67.4772 28.7864 67.004 28.7378 66.5248 28.6952C55.0792 27.6769 40.915 30.0998 29.5709 36.7618C23.5457 40.3003 17.5489 45.5213 13.5509 51.7351C9.56963 57.923 7.63728 64.9704 9.40765 72.3708C10.6558 77.5882 15.437 80.8569 22.2444 81.1876C29.0261 81.5171 37.3387 78.813 44.3193 72.5144C47.2774 69.8455 49.8567 66.4033 52.2136 62.4492C52.0867 62.4382 51.9609 62.4261 51.8362 62.413C49.6159 62.1778 47.4388 61.5549 45.8322 60.2106C44.0835 58.7473 43.2735 56.6468 43.5431 54.1934C43.8173 51.6989 45.1328 49.8125 47.0626 48.5834C48.8981 47.4144 51.2138 46.8769 53.6246 46.7184C55.5244 46.5934 57.6115 46.6959 59.7956 46.9897C60.3582 45.6894 60.9166 44.3818 61.4756 43.0731C61.7712 42.3811 62.0668 41.6887 62.3634 40.9971C64.1512 36.8262 65.9703 32.6715 67.944 28.8408ZM57.7706 51.5737C56.3929 51.4458 55.1026 51.4169 53.9336 51.4938C51.9402 51.6249 50.5054 52.0512 49.5975 52.6294C48.7839 53.1475 48.3629 53.7916 48.2609 54.7204C48.1543 55.6901 48.43 56.1653 48.8636 56.5281C49.4394 57.0099 50.5415 57.4638 52.3323 57.6536C53.0912 57.734 53.9216 57.7616 54.8104 57.7384C55.8361 55.7411 56.8161 53.6771 57.7706 51.5737ZM60.4548 57.061C61.2008 55.5115 61.9243 53.9375 62.6314 52.3549C64.6035 52.7917 66.6576 53.3799 68.7201 54.1048C68.9726 54.1936 69.2248 54.2842 69.4763 54.3765C68.4347 54.7877 67.3787 55.1679 66.3194 55.5139C64.311 56.1699 62.3317 56.689 60.4548 57.061ZM75.3599 51.6279C73.6946 50.8696 71.9893 50.1858 70.2824 49.5859C68.3935 48.922 66.4758 48.3517 64.5811 47.8959C65.003 46.9147 65.421 45.9361 65.8361 44.964C66.1321 44.2708 66.4268 43.5808 66.7205 42.8955C68.7477 38.1659 70.7314 33.6622 72.875 29.6808C75.8762 30.3715 78.4823 31.3383 80.5644 32.5299C84.0064 34.4998 85.7241 36.8877 85.9488 39.4565C86.1782 42.0786 84.4299 45.1188 80.5713 48.2029C79.045 49.4228 77.2769 50.5745 75.3599 51.6279Z" fill="#EEEEEE"/>
</svg>
